<svg width="21" height="20" viewBox="0 0 21 20" fill="none" xmlns="http://www.w3.org/2000/svg">
<path d="M7.80836 9.79146H13.3917V8.70817H7.80836V9.79146ZM7.80836 6.79146H13.3917V5.70817H7.80836V6.79146ZM16.1464 16.5254L13.4695 13.0082C13.2798 12.7537 13.0449 12.5567 12.7649 12.4173C12.4849 12.2779 12.1799 12.2082 11.85 12.2082H5.01669V3.75625C5.01669 3.38114 5.14629 3.06407 5.40548 2.80505C5.66468 2.54602 5.98194 2.4165 6.35728 2.4165H14.8495C15.2248 2.4165 15.541 2.54602 15.7979 2.80505C16.0548 3.06407 16.1833 3.38114 16.1833 3.75625V16.2434C16.1833 16.2934 16.182 16.3425 16.1793 16.3907C16.1766 16.4388 16.1657 16.4838 16.1464 16.5254ZM6.35644 17.5831C5.98133 17.5831 5.66426 17.4536 5.40523 17.1946C5.14621 16.9356 5.01669 16.6185 5.01669 16.2434V13.2915H11.85C11.9932 13.2915 12.1337 13.3224 12.2715 13.3844C12.4093 13.4464 12.5261 13.5407 12.622 13.6674L15.4798 17.4238C15.3943 17.4702 15.2956 17.5083 15.1835 17.5383C15.0714 17.5682 14.9581 17.5831 14.8436 17.5831H6.35644Z" fill="black" fill-opacity="0.4"/>
</svg>
