<svg width="18" height="18" viewBox="0 0 18 18" fill="none" xmlns="http://www.w3.org/2000/svg">
<path d="M2 18H4.675V13.325H0V16C0 16.55 0.195833 17.0208 0.5875 17.4125C0.979167 17.8042 1.45 18 2 18ZM6.675 18H11.325V13.325H6.675V18ZM13.325 18H16C16.55 18 17.0208 17.8042 17.4125 17.4125C17.8042 17.0208 18 16.55 18 16V13.325H13.325V18ZM0 11.325H4.675V6.675H0V11.325ZM6.675 11.325H11.325V6.675H6.675V11.325ZM13.325 11.325H18V6.675H13.325V11.325ZM0 4.675H4.675V0H2C1.45 0 0.979167 0.195833 0.5875 0.5875C0.195833 0.979167 0 1.45 0 2V4.675ZM6.675 4.675H11.325V0H6.675V4.675ZM13.325 4.675H18V2C18 1.45 17.8042 0.979167 17.4125 0.5875C17.0208 0.195833 16.55 0 16 0H13.325V4.675Z" fill="black"/>
</svg>
