<svg width="18" height="18" viewBox="0 0 18 18" fill="none" xmlns="http://www.w3.org/2000/svg">
<path d="M9.74995 9.74995H17.5V15.6923C17.5 16.1894 17.3229 16.6149 16.9689 16.9689C16.6149 17.3229 16.1894 17.5 15.6923 17.5H9.74995V9.74995ZM9.74995 8.25V0.5H15.6923C16.1894 0.5 16.6149 0.677009 16.9689 1.03103C17.3229 1.38503 17.5 1.81058 17.5 2.3077V8.25H9.74995ZM8.25 8.25H0.5V2.3077C0.5 1.81058 0.677008 1.38503 1.03102 1.03103C1.38503 0.677009 1.81058 0.5 2.3077 0.5H8.25V8.25ZM8.25 9.74995V17.5H2.3077C1.81058 17.5 1.38503 17.3229 1.03102 16.9689C0.677008 16.6149 0.5 16.1894 0.5 15.6923V9.74995H8.25Z" fill="black"/>
</svg>
