<svg width="166" height="56" viewBox="0 0 166 56" fill="none" xmlns="http://www.w3.org/2000/svg">
<path d="M35.1307 12.175C34.6274 11.0965 34.5316 10.042 34.9869 9.01143C35.2745 8.34037 35.7538 7.81312 36.4009 7.45362C37.6232 6.73464 39.2289 6.87844 40.3074 7.78915C41.5776 8.86763 41.8173 10.2337 41.0504 12.3188C41.4578 12.4146 41.8412 12.4865 42.2487 12.5584C49.0551 14.0683 54.2078 19.3888 55.3821 26.2191C55.9813 29.6703 55.5259 33.0016 54.064 36.1891C53.8723 36.5965 53.6566 36.7882 53.1773 36.7643C51.0443 36.7403 48.9352 36.7403 46.8022 36.7403C46.6345 36.7403 46.4907 36.7403 46.2031 36.7403C48.7195 34.104 49.822 31.0603 49.3427 27.5613C48.9592 24.7812 47.6411 22.5044 45.4601 20.7309C41.2421 17.3037 35.3224 17.5434 31.2482 21.354C27.5814 24.7572 26.2153 31.6595 31.1284 36.7403C30.9366 36.7403 30.7689 36.7643 30.6251 36.7643C22.3328 36.7643 14.0644 36.7643 5.77214 36.7643C4.21434 36.7643 3.01603 35.9734 2.58464 34.6313C1.93755 32.6181 3.44742 30.581 5.62834 30.581C10.3497 30.581 15.0471 30.581 19.7684 30.581C20.08 30.581 20.4155 30.581 20.7031 30.4851C21.3981 30.2934 21.8535 29.5744 21.7576 28.8794C21.6617 28.1604 21.0865 27.6092 20.3436 27.5613C20.0081 27.5373 19.6725 27.5613 19.337 27.5613C14.7595 27.5613 10.1819 27.5613 5.60438 27.5613C3.87881 27.5613 2.51274 26.339 2.44084 24.7093C2.34498 22.9597 3.51932 21.6176 5.26885 21.4259C5.58041 21.4019 5.89197 21.378 6.20353 21.378C11.6678 21.378 17.1321 21.378 22.5724 21.378C23.7468 21.378 24.4897 20.3954 24.1063 19.3408C23.8666 18.7177 23.3154 18.3343 22.5485 18.3343C21.0146 18.3343 19.4568 18.3343 17.923 18.3343C16.2933 18.3343 14.9752 17.2318 14.7834 15.722C14.5917 14.0443 15.5743 12.6543 17.228 12.2708C17.4916 12.1989 17.7792 12.1989 18.0668 12.1989C23.5071 12.1989 28.9474 12.1989 34.3878 12.1989C34.6274 12.175 34.8192 12.175 35.1307 12.175Z" fill="#FF5634"/>
<path d="M51.7387 39.8091C51.3313 40.2645 51.0197 40.624 50.6842 40.9595C47.305 44.2908 43.2307 45.9684 38.4615 45.9684C31.679 45.9684 24.8966 45.9684 18.0902 45.9684C16.3646 45.9684 15.2143 45.1296 14.8308 43.6197C14.3515 41.7504 15.7175 39.905 17.6348 39.8091C17.8505 39.8091 18.0662 39.7852 18.2819 39.7852C29.1865 39.7852 40.0912 39.7852 50.9958 39.7852C51.2115 39.8091 51.4032 39.8091 51.7387 39.8091Z" fill="#FF5634"/>
<path d="M74.004 36.288C72.34 36.288 70.876 35.92 69.612 35.184C68.348 34.448 67.356 33.432 66.636 32.136C65.932 30.824 65.58 29.312 65.58 27.6C65.58 25.888 65.932 24.384 66.636 23.088C67.356 21.776 68.348 20.752 69.612 20.016C70.876 19.28 72.34 18.912 74.004 18.912C75.668 18.912 77.132 19.28 78.396 20.016C79.676 20.752 80.668 21.776 81.372 23.088C82.092 24.384 82.452 25.888 82.452 27.6C82.452 29.312 82.092 30.824 81.372 32.136C80.668 33.432 79.676 34.448 78.396 35.184C77.132 35.92 75.668 36.288 74.004 36.288ZM74.004 33.384C75.044 33.384 75.948 33.152 76.716 32.688C77.484 32.208 78.076 31.536 78.492 30.672C78.924 29.808 79.14 28.784 79.14 27.6C79.14 26.4 78.924 25.376 78.492 24.528C78.076 23.664 77.484 23 76.716 22.536C75.948 22.072 75.044 21.84 74.004 21.84C72.964 21.84 72.06 22.072 71.292 22.536C70.524 23 69.924 23.664 69.492 24.528C69.076 25.376 68.868 26.4 68.868 27.6C68.868 28.784 69.076 29.808 69.492 30.672C69.924 31.536 70.524 32.208 71.292 32.688C72.06 33.152 72.964 33.384 74.004 33.384ZM84.5878 36V24.096H87.4678L87.7798 26.328C88.0678 25.816 88.4198 25.376 88.8358 25.008C89.2678 24.624 89.7558 24.328 90.2998 24.12C90.8598 23.912 91.4678 23.808 92.1238 23.808V27.24H91.2358C90.7398 27.24 90.2758 27.296 89.8438 27.408C89.4278 27.52 89.0678 27.704 88.7638 27.96C88.4598 28.216 88.2278 28.568 88.0678 29.016C87.9078 29.448 87.8278 30 87.8278 30.672V36H84.5878ZM99.0251 36.288C97.9211 36.288 96.9211 36.016 96.0251 35.472C95.1451 34.928 94.4491 34.184 93.9371 33.24C93.4251 32.28 93.1691 31.208 93.1691 30.024C93.1691 28.824 93.4251 27.76 93.9371 26.832C94.4491 25.888 95.1451 25.152 96.0251 24.624C96.9211 24.08 97.9211 23.808 99.0251 23.808C99.9051 23.808 100.673 23.976 101.329 24.312C102.001 24.632 102.537 25.08 102.937 25.656V18.72H106.177V36H103.297L102.937 34.344C102.697 34.696 102.393 35.024 102.025 35.328C101.673 35.616 101.249 35.848 100.753 36.024C100.257 36.2 99.6811 36.288 99.0251 36.288ZM99.7451 33.456C100.385 33.456 100.953 33.312 101.449 33.024C101.945 32.72 102.329 32.312 102.601 31.8C102.889 31.288 103.033 30.704 103.033 30.048C103.033 29.376 102.889 28.784 102.601 28.272C102.329 27.76 101.945 27.36 101.449 27.072C100.953 26.784 100.385 26.64 99.7451 26.64C99.1211 26.64 98.5531 26.784 98.0411 27.072C97.5451 27.36 97.1611 27.76 96.8891 28.272C96.6171 28.784 96.4811 29.368 96.4811 30.024C96.4811 30.696 96.6171 31.288 96.8891 31.8C97.1611 32.312 97.5451 32.72 98.0411 33.024C98.5531 33.312 99.1211 33.456 99.7451 33.456ZM114.655 36.288C113.439 36.288 112.359 36.032 111.415 35.52C110.487 35.008 109.759 34.288 109.231 33.36C108.703 32.432 108.439 31.368 108.439 30.168C108.439 28.92 108.695 27.824 109.207 26.88C109.735 25.92 110.463 25.168 111.391 24.624C112.335 24.08 113.431 23.808 114.679 23.808C115.863 23.808 116.903 24.064 117.799 24.576C118.711 25.088 119.415 25.792 119.911 26.688C120.423 27.568 120.679 28.568 120.679 29.688C120.679 29.848 120.679 30.032 120.679 30.24C120.679 30.432 120.663 30.632 120.631 30.84H110.767V28.848H117.391C117.343 28.128 117.063 27.544 116.551 27.096C116.055 26.648 115.431 26.424 114.679 26.424C114.119 26.424 113.607 26.552 113.143 26.808C112.679 27.048 112.311 27.416 112.039 27.912C111.767 28.408 111.631 29.032 111.631 29.784V30.48C111.631 31.12 111.759 31.68 112.015 32.16C112.271 32.64 112.623 33.008 113.071 33.264C113.535 33.52 114.055 33.648 114.631 33.648C115.223 33.648 115.719 33.52 116.119 33.264C116.519 32.992 116.823 32.648 117.031 32.232H120.343C120.103 32.984 119.719 33.672 119.191 34.296C118.663 34.904 118.015 35.392 117.247 35.76C116.479 36.112 115.615 36.288 114.655 36.288ZM122.781 36V24.096H125.661L125.973 26.328C126.261 25.816 126.613 25.376 127.029 25.008C127.461 24.624 127.949 24.328 128.493 24.12C129.053 23.912 129.661 23.808 130.317 23.808V27.24H129.429C128.933 27.24 128.469 27.296 128.037 27.408C127.621 27.52 127.261 27.704 126.957 27.96C126.653 28.216 126.421 28.568 126.261 29.016C126.101 29.448 126.021 30 126.021 30.672V36H122.781ZM132.029 36V24.096H135.269V36H132.029ZM133.637 22.368C133.061 22.368 132.581 22.2 132.197 21.864C131.829 21.512 131.645 21.072 131.645 20.544C131.645 20.016 131.829 19.584 132.197 19.248C132.581 18.896 133.061 18.72 133.637 18.72C134.229 18.72 134.709 18.896 135.077 19.248C135.461 19.584 135.653 20.016 135.653 20.544C135.653 21.072 135.461 21.512 135.077 21.864C134.709 22.2 134.229 22.368 133.637 22.368ZM138.521 36V26.808H136.889V24.096H138.521V22.824C138.521 21.816 138.689 21.016 139.025 20.424C139.361 19.832 139.841 19.4 140.465 19.128C141.089 18.856 141.825 18.72 142.673 18.72H144.017V21.48H143.177C142.665 21.48 142.297 21.584 142.073 21.792C141.865 21.984 141.761 22.32 141.761 22.8V24.096H149.489V36H146.249V26.808H141.761V36H138.521ZM147.881 22.488C147.305 22.488 146.825 22.312 146.441 21.96C146.073 21.608 145.889 21.168 145.889 20.64C145.889 20.112 146.073 19.68 146.441 19.344C146.825 18.992 147.305 18.816 147.881 18.816C148.473 18.816 148.953 18.992 149.321 19.344C149.705 19.68 149.897 20.112 149.897 20.64C149.897 21.168 149.705 21.608 149.321 21.96C148.953 22.312 148.473 22.488 147.881 22.488ZM158.088 36.288C156.872 36.288 155.792 36.024 154.848 35.496C153.904 34.952 153.16 34.216 152.616 33.288C152.088 32.344 151.824 31.264 151.824 30.048C151.824 28.832 152.088 27.76 152.616 26.832C153.16 25.888 153.904 25.152 154.848 24.624C155.792 24.08 156.872 23.808 158.088 23.808C159.624 23.808 160.92 24.208 161.976 25.008C163.032 25.808 163.696 26.912 163.968 28.32H160.56C160.416 27.776 160.12 27.352 159.672 27.048C159.224 26.728 158.688 26.568 158.064 26.568C157.52 26.568 157.024 26.712 156.576 27C156.128 27.272 155.776 27.672 155.52 28.2C155.264 28.712 155.136 29.328 155.136 30.048C155.136 30.592 155.208 31.08 155.352 31.512C155.512 31.928 155.72 32.288 155.976 32.592C156.248 32.896 156.56 33.128 156.912 33.288C157.264 33.448 157.648 33.528 158.064 33.528C158.48 33.528 158.856 33.464 159.192 33.336C159.528 33.192 159.816 32.992 160.056 32.736C160.296 32.464 160.464 32.144 160.56 31.776H163.968C163.696 33.152 163.032 34.248 161.976 35.064C160.92 35.88 159.624 36.288 158.088 36.288Z" fill="#FF5634"/>
</svg>
