<svg width="12" height="12" viewBox="0 0 12 12" fill="none" xmlns="http://www.w3.org/2000/svg">
<path d="M6.20001 5.74375C5.48128 5.74375 4.87104 5.49289 4.3693 4.99117C3.86757 4.48943 3.6167 3.8792 3.6167 3.16046C3.6167 2.44171 3.86757 1.83147 4.3693 1.32975C4.87104 0.828016 5.48128 0.577148 6.20001 0.577148C6.91875 0.577148 7.52898 0.828016 8.03072 1.32975C8.53246 1.83147 8.78333 2.44171 8.78333 3.16046C8.78333 3.8792 8.53246 4.48943 8.03072 4.99117C7.52898 5.49289 6.91875 5.74375 6.20001 5.74375ZM0.616699 11.4232V9.90402C0.616699 9.64869 0.692824 9.40271 0.845074 9.16607C0.99731 8.92943 1.21018 8.72457 1.48368 8.55148C2.21018 8.13375 2.97514 7.8135 3.77855 7.59075C4.58197 7.368 5.38912 7.25663 6.20001 7.25663C7.0109 7.25663 7.81805 7.368 8.62147 7.59075C9.42489 7.8135 10.1898 8.13375 10.9163 8.55148C11.1898 8.71068 11.4027 8.91207 11.5549 9.15565C11.7072 9.39923 11.7833 9.64869 11.7833 9.90402V11.4232H0.616699Z" fill="black" fill-opacity="0.4"/>
</svg>
